<svg width="512" height="512" viewBox="0 0 384 384" xmlns="http://www.w3.org/2000/svg"><defs><radialGradient id="a" cx="298.5" cy="341.51" r="176.25" gradientTransform="matrix(2.316 -.64203 .33358 1.2033 -484.94 133)" gradientUnits="userSpaceOnUse"><stop stop-color="#811035" offset="0"/><stop stop-color="#d41919" offset="1"/></radialGradient></defs><g fill-rule="evenodd"><path d="M37.973 52.07c-12.199 0-22.245 9.914-22.245 21.953v232.27c0 12.04 10.046 21.953 22.245 21.953h308.06c12.199 0 22.241-9.916 22.241-21.953V74.023c0-12.037-10.043-21.953-22.241-21.953zm0 14.355h308.06c4.335 0 7.694 3.317 7.694 7.598v232.27c0 4.28-3.36 7.598-7.694 7.598H37.973c-4.335 0-7.698-3.32-7.698-7.598V74.023c0-4.278 3.363-7.598 7.698-7.598z" color="#000" fill="#fff" opacity=".2" stroke="#000" stroke-linejoin="round" stroke-width="7.452" style="font-feature-settings:normal;font-variant-alternates:normal;font-variant-caps:normal;font-variant-ligatures:normal;font-variant-numeric:normal;font-variant-position:normal;isolation:auto;mix-blend-mode:normal;shape-padding:0;text-decoration-color:#000;text-decoration-line:none;text-decoration-style:solid;text-indent:0;text-orientation:mixed;text-transform:none;white-space:normal"/><path d="M37.994 59.603c-12.197 0-22.24 10.043-22.24 22.24v235.31c0 12.197 10.043 22.242 22.24 22.242h308.02c12.197 0 22.236-10.047 22.236-22.242V81.843c0-12.195-10.039-22.24-22.236-22.24z" color="#000" opacity=".3" style="font-feature-settings:normal;font-variant-alternates:normal;font-variant-caps:normal;font-variant-ligatures:normal;font-variant-numeric:normal;font-variant-position:normal;isolation:auto;mix-blend-mode:normal;shape-padding:0;text-decoration-color:#000;text-decoration-line:none;text-decoration-style:solid;text-indent:0;text-orientation:mixed;text-transform:none;white-space:normal"/><path d="M37.993 59.366h308.02c8.266 0 14.965 6.703 14.965 14.969v235.31c0 8.266-6.699 14.969-14.965 14.969H37.993c-8.266 0-14.969-6.703-14.969-14.969V74.335c0-8.266 6.703-14.969 14.969-14.969z" fill="url(#a)" stroke="#fff" stroke-linejoin="round" stroke-width="14.544"/></g><path d="m51.716 82.869.01 1.655.16 21.006.233.034 41.496 24.576-41.763 25.826.043.107-.077.013-.163 22.679 56.556-35.28-.046-.123-.205-25.237v-.218l-.897-.215.05.01.847.194-.019-1.71.065-.182z" color="#000" fill="#fff" style="font-feature-settings:normal;font-variant-alternates:normal;font-variant-caps:normal;font-variant-ligatures:normal;font-variant-numeric:normal;font-variant-position:normal;isolation:auto;mix-blend-mode:normal;shape-padding:0;text-decoration-color:#000;text-decoration-line:none;text-decoration-style:solid;text-indent:0;text-orientation:mixed;text-transform:none;white-space:normal"/><path d="M120.61 170.98v-8.739h59.82v17.471h-59.82z" fill="#fff"/></svg>